<?xml version="1.0" encoding="UTF-8"?>
<svg xmlns="http://www.w3.org/2000/svg" xmlns:xlink="http://www.w3.org/1999/xlink" width="20px" height="20px" viewBox="0 0 20 20" version="1.1">
<g id="surface1">
<path style=" stroke:none;fill-rule:nonzero;fill:rgb(13.333334%,54.509807%,90.196079%);fill-opacity:1;" d="M 10 3.125 C 6.203125 3.125 3.125 6.203125 3.125 10 C 3.125 13.796875 6.203125 16.875 10 16.875 C 13.796875 16.875 16.875 13.796875 16.875 10 C 16.875 6.203125 13.796875 3.125 10 3.125 Z M 10 4.375 C 13.105469 4.375 15.625 6.894531 15.625 10 C 15.625 13.105469 13.105469 15.625 10 15.625 C 6.894531 15.625 4.375 13.105469 4.375 10 C 4.375 6.894531 6.894531 4.375 10 4.375 Z M 10 6.5625 C 9.480469 6.5625 9.0625 6.980469 9.0625 7.5 C 9.0625 8.019531 9.480469 8.4375 10 8.4375 C 10.519531 8.4375 10.9375 8.019531 10.9375 7.5 C 10.9375 6.980469 10.519531 6.5625 10 6.5625 Z M 10 9.375 C 9.65625 9.375 9.375 9.65625 9.375 10 L 9.375 13.125 C 9.375 13.46875 9.65625 13.75 10 13.75 C 10.34375 13.75 10.625 13.46875 10.625 13.125 L 10.625 10 C 10.625 9.65625 10.34375 9.375 10 9.375 Z M 10 9.375 "/>
</g>
</svg>
