<?xml version="1.0" encoding="UTF-8"?>
<svg xmlns="http://www.w3.org/2000/svg" xmlns:xlink="http://www.w3.org/1999/xlink" width="20px" height="20px" viewBox="0 0 20 20" version="1.1">
<g id="surface1">
<path style=" stroke:none;fill-rule:nonzero;fill:rgb(18.82353%,65.882355%,97.647059%);fill-opacity:1;" d="M 19.066406 3.847656 L 7.910156 3.847656 C 7.488281 3.847656 7.09375 3.648438 6.84375 3.3125 L 6.304688 2.589844 C 6.128906 2.347656 5.847656 2.207031 5.546875 2.207031 L 0.910156 2.207031 C 0.46875 2.207031 0.109375 2.566406 0.109375 3.007812 L 0.109375 6.5 C 0.109375 6.058594 0.46875 6.136719 0.910156 6.136719 L 19.066406 6.136719 C 19.507812 6.136719 19.867188 6.058594 19.867188 6.5 L 19.867188 4.648438 C 19.867188 4.207031 19.507812 3.847656 19.066406 3.847656 Z M 19.066406 3.847656 "/>
<path style=" stroke:none;fill-rule:nonzero;fill:rgb(16.470589%,59.607846%,91.764706%);fill-opacity:1;" d="M 19.066406 17.769531 L 0.910156 17.769531 C 0.46875 17.769531 0.109375 17.410156 0.109375 16.96875 L 0.109375 6.5 C 0.109375 6.058594 0.46875 5.699219 0.910156 5.699219 L 19.066406 5.699219 C 19.507812 5.699219 19.867188 6.058594 19.867188 6.5 L 19.867188 16.96875 C 19.867188 17.410156 19.507812 17.769531 19.066406 17.769531 Z M 19.066406 17.769531 "/>
</g>
</svg>
