<?xml version="1.0" encoding="UTF-8"?>
<svg xmlns="http://www.w3.org/2000/svg" xmlns:xlink="http://www.w3.org/1999/xlink" width="20px" height="20px" viewBox="0 0 20 20" version="1.1">
<g id="surface1">
<path style=" stroke:none;fill-rule:nonzero;fill:rgb(13.333334%,54.509807%,90.196079%);fill-opacity:1;" d="M 5 4.0625 C 3.964844 4.0625 3.125 4.902344 3.125 5.9375 L 3.125 14.0625 C 3.125 15.097656 3.964844 15.9375 5 15.9375 L 15 15.9375 C 16.035156 15.9375 16.875 15.097656 16.875 14.0625 L 16.875 7.1875 C 16.875 6.152344 16.035156 5.3125 15 5.3125 L 9.09375 5.3125 C 8.8125 5.3125 8.535156 5.214844 8.316406 5.039062 L 7.78125 4.609375 C 7.339844 4.257812 6.785156 4.0625 6.21875 4.0625 Z M 5 5.3125 L 6.21875 5.3125 C 6.5 5.3125 6.777344 5.410156 7 5.585938 L 7.53125 6.015625 C 7.972656 6.367188 8.527344 6.5625 9.09375 6.5625 L 15 6.5625 C 15.34375 6.5625 15.625 6.84375 15.625 7.1875 L 15.625 7.5 L 4.375 7.5 L 4.375 5.9375 C 4.375 5.59375 4.65625 5.3125 5 5.3125 Z M 4.375 8.75 L 15.625 8.75 L 15.625 14.0625 C 15.625 14.40625 15.34375 14.6875 15 14.6875 L 5 14.6875 C 4.65625 14.6875 4.375 14.40625 4.375 14.0625 Z M 4.375 8.75 "/>
</g>
</svg>
