<?xml version="1.0" encoding="UTF-8"?>
<svg xmlns="http://www.w3.org/2000/svg" xmlns:xlink="http://www.w3.org/1999/xlink" width="20px" height="20px" viewBox="0 0 20 20" version="1.1">
<g id="surface1">
<path style=" stroke:none;fill-rule:nonzero;fill:rgb(13.333334%,54.509807%,90.196079%);fill-opacity:1;" d="M 10 2.5 C 9.714844 2.5 9.429688 2.597656 9.199219 2.789062 L 2.75 8.179688 C 2.511719 8.378906 2.425781 8.726562 2.585938 8.996094 C 2.785156 9.335938 3.234375 9.402344 3.523438 9.160156 L 3.75 8.972656 L 3.75 14.6875 C 3.75 15.550781 4.449219 16.25 5.3125 16.25 L 14.6875 16.25 C 15.550781 16.25 16.25 15.550781 16.25 14.6875 L 16.25 8.972656 L 16.476562 9.160156 C 16.589844 9.257812 16.734375 9.304688 16.875 9.304688 C 17.089844 9.304688 17.308594 9.191406 17.425781 8.976562 C 17.570312 8.710938 17.484375 8.375 17.253906 8.183594 L 16.25 7.34375 L 16.25 4.6875 C 16.25 4.34375 15.96875 4.0625 15.625 4.0625 L 15 4.0625 C 14.65625 4.0625 14.375 4.34375 14.375 4.6875 L 14.375 5.777344 L 10.800781 2.789062 C 10.570312 2.597656 10.285156 2.5 10 2.5 Z M 10 3.796875 C 10.035156 3.796875 10.070312 3.808594 10.101562 3.835938 L 15 7.929688 L 15 14.375 C 15 14.71875 14.71875 15 14.375 15 L 11.875 15 L 11.875 10.625 C 11.875 10.28125 11.59375 10 11.25 10 L 8.75 10 C 8.40625 10 8.125 10.28125 8.125 10.625 L 8.125 15 L 5.625 15 C 5.28125 15 5 14.71875 5 14.375 L 5 7.925781 L 9.898438 3.835938 C 9.929688 3.808594 9.964844 3.796875 10 3.796875 Z M 10 3.796875 "/>
</g>
</svg>
